<svg xmlns="http://www.w3.org/2000/svg" xmlns:xlink="http://www.w3.org/1999/xlink" width="1000" zoomAndPan="magnify" viewBox="0 0 750 374.999991" height="500" preserveAspectRatio="xMidYMid meet" version="1.0"><defs><g/></defs><g fill="#ffffff" fill-opacity="1"><g transform="translate(5.476405, 179.362527)"><g><path d="M 75.359375 -59.625 C 75.359375 -55.613281 74.757812 -52.054688 73.5625 -48.953125 C 72.363281 -45.859375 70.71875 -43.15625 68.625 -40.84375 C 66.539062 -38.53125 64.09375 -36.566406 61.28125 -34.953125 C 58.476562 -33.335938 55.472656 -32.023438 52.265625 -31.015625 C 49.066406 -30.003906 45.753906 -29.257812 42.328125 -28.78125 C 38.898438 -28.3125 35.53125 -28.054688 32.21875 -28.015625 L 32.21875 0.875 L 3.34375 0.875 C 3.34375 -8.59375 3.363281 -18.015625 3.40625 -27.390625 C 3.445312 -36.765625 3.507812 -46.226562 3.59375 -55.78125 C 3.675781 -60.820312 3.695312 -65.859375 3.65625 -70.890625 C 3.613281 -75.929688 3.71875 -81.015625 3.96875 -86.140625 C 9.257812 -87.710938 14.546875 -88.890625 19.828125 -89.671875 C 25.117188 -90.460938 30.570312 -90.859375 36.1875 -90.859375 C 39.375 -90.859375 42.554688 -90.597656 45.734375 -90.078125 C 48.921875 -89.554688 51.96875 -88.738281 54.875 -87.625 C 57.789062 -86.507812 60.5 -85.113281 63 -83.4375 C 65.5 -81.769531 67.65625 -79.78125 69.46875 -77.46875 C 71.289062 -75.15625 72.726562 -72.519531 73.78125 -69.5625 C 74.832031 -66.613281 75.359375 -63.300781 75.359375 -59.625 Z M 47.84375 -57.515625 C 47.84375 -60.203125 47.023438 -62.296875 45.390625 -63.796875 C 43.765625 -65.304688 41.648438 -66.0625 39.046875 -66.0625 C 38.171875 -66.0625 37.269531 -65.988281 36.34375 -65.84375 C 35.414062 -65.695312 34.539062 -65.519531 33.71875 -65.3125 L 32.96875 -47.21875 C 33.550781 -47.132812 34.109375 -47.09375 34.640625 -47.09375 C 35.179688 -47.09375 35.738281 -47.09375 36.3125 -47.09375 C 37.800781 -47.09375 39.238281 -47.34375 40.625 -47.84375 C 42.007812 -48.34375 43.238281 -49.054688 44.3125 -49.984375 C 45.382812 -50.910156 46.238281 -52.003906 46.875 -53.265625 C 47.519531 -54.523438 47.84375 -55.941406 47.84375 -57.515625 Z M 47.84375 -57.515625 "/></g></g><g transform="translate(81.086016, 179.362527)"><g><path d="M 77.28125 -68.921875 C 77.28125 -65.859375 77.132812 -62.488281 76.84375 -58.8125 C 76.550781 -55.132812 76.078125 -51.332031 75.421875 -47.40625 C 74.765625 -43.476562 73.90625 -39.5 72.84375 -35.46875 C 71.789062 -31.445312 70.476562 -27.578125 68.90625 -23.859375 C 67.34375 -20.140625 65.515625 -16.65625 63.421875 -13.40625 C 61.335938 -10.164062 58.941406 -7.335938 56.234375 -4.921875 C 53.535156 -2.503906 50.507812 -0.609375 47.15625 0.765625 C 43.8125 2.148438 40.09375 2.84375 36 2.84375 C 31.207031 2.84375 27.046875 2.066406 23.515625 0.515625 C 19.984375 -1.023438 16.957031 -3.109375 14.4375 -5.734375 C 11.914062 -8.359375 9.847656 -11.414062 8.234375 -14.90625 C 6.628906 -18.394531 5.367188 -22.09375 4.453125 -26 C 3.546875 -29.90625 2.914062 -33.890625 2.5625 -37.953125 C 2.21875 -42.023438 2.046875 -45.941406 2.046875 -49.703125 C 2.046875 -55.484375 2.332031 -61.253906 2.90625 -67.015625 C 3.488281 -72.785156 4.316406 -78.539062 5.390625 -84.28125 L 34.390625 -83.171875 C 33.273438 -76.679688 32.316406 -70.160156 31.515625 -63.609375 C 30.710938 -57.066406 30.3125 -50.488281 30.3125 -43.875 C 30.3125 -43.175781 30.335938 -42.132812 30.390625 -40.75 C 30.453125 -39.363281 30.566406 -37.8125 30.734375 -36.09375 C 30.898438 -34.382812 31.140625 -32.628906 31.453125 -30.828125 C 31.765625 -29.035156 32.1875 -27.394531 32.71875 -25.90625 C 33.257812 -24.414062 33.910156 -23.195312 34.671875 -22.25 C 35.441406 -21.300781 36.34375 -20.828125 37.375 -20.828125 C 38.570312 -20.828125 39.644531 -21.394531 40.59375 -22.53125 C 41.539062 -23.664062 42.375 -25.179688 43.09375 -27.078125 C 43.820312 -28.984375 44.453125 -31.175781 44.984375 -33.65625 C 45.523438 -36.132812 45.976562 -38.710938 46.34375 -41.390625 C 46.71875 -44.078125 47.019531 -46.765625 47.25 -49.453125 C 47.476562 -52.140625 47.664062 -54.640625 47.8125 -56.953125 C 47.957031 -59.265625 48.050781 -61.304688 48.09375 -63.078125 C 48.132812 -64.859375 48.15625 -66.1875 48.15625 -67.0625 C 48.15625 -70.28125 48.101562 -73.488281 48 -76.6875 C 47.894531 -79.894531 47.738281 -83.085938 47.53125 -86.265625 L 76.53125 -86.265625 C 77.03125 -80.566406 77.28125 -74.785156 77.28125 -68.921875 Z M 77.28125 -68.921875 "/></g></g><g transform="translate(160.166233, 179.362527)"><g><path d="M 98.96875 -90.359375 L 93.265625 0.625 L 65.015625 1.859375 L 65.265625 -46.109375 L 52.484375 -7.4375 L 41.578125 -7.4375 L 31.796875 -42.015625 L 31.671875 -1.859375 L 3.03125 -0.984375 L 4.28125 -86.640625 L 36.125 -87.875 L 48.765625 -46.859375 L 65.625 -90.359375 Z M 98.96875 -90.359375 "/></g></g><g transform="translate(260.503905, 179.362527)"><g><path d="M 75.359375 -59.625 C 75.359375 -55.613281 74.757812 -52.054688 73.5625 -48.953125 C 72.363281 -45.859375 70.71875 -43.15625 68.625 -40.84375 C 66.539062 -38.53125 64.09375 -36.566406 61.28125 -34.953125 C 58.476562 -33.335938 55.472656 -32.023438 52.265625 -31.015625 C 49.066406 -30.003906 45.753906 -29.257812 42.328125 -28.78125 C 38.898438 -28.3125 35.53125 -28.054688 32.21875 -28.015625 L 32.21875 0.875 L 3.34375 0.875 C 3.34375 -8.59375 3.363281 -18.015625 3.40625 -27.390625 C 3.445312 -36.765625 3.507812 -46.226562 3.59375 -55.78125 C 3.675781 -60.820312 3.695312 -65.859375 3.65625 -70.890625 C 3.613281 -75.929688 3.71875 -81.015625 3.96875 -86.140625 C 9.257812 -87.710938 14.546875 -88.890625 19.828125 -89.671875 C 25.117188 -90.460938 30.570312 -90.859375 36.1875 -90.859375 C 39.375 -90.859375 42.554688 -90.597656 45.734375 -90.078125 C 48.921875 -89.554688 51.96875 -88.738281 54.875 -87.625 C 57.789062 -86.507812 60.5 -85.113281 63 -83.4375 C 65.5 -81.769531 67.65625 -79.78125 69.46875 -77.46875 C 71.289062 -75.15625 72.726562 -72.519531 73.78125 -69.5625 C 74.832031 -66.613281 75.359375 -63.300781 75.359375 -59.625 Z M 47.84375 -57.515625 C 47.84375 -60.203125 47.023438 -62.296875 45.390625 -63.796875 C 43.765625 -65.304688 41.648438 -66.0625 39.046875 -66.0625 C 38.171875 -66.0625 37.269531 -65.988281 36.34375 -65.84375 C 35.414062 -65.695312 34.539062 -65.519531 33.71875 -65.3125 L 32.96875 -47.21875 C 33.550781 -47.132812 34.109375 -47.09375 34.640625 -47.09375 C 35.179688 -47.09375 35.738281 -47.09375 36.3125 -47.09375 C 37.800781 -47.09375 39.238281 -47.34375 40.625 -47.84375 C 42.007812 -48.34375 43.238281 -49.054688 44.3125 -49.984375 C 45.382812 -50.910156 46.238281 -52.003906 46.875 -53.265625 C 47.519531 -54.523438 47.84375 -55.941406 47.84375 -57.515625 Z M 47.84375 -57.515625 "/></g></g><g transform="translate(336.113516, 179.362527)"><g><path d="M 98.96875 -90.359375 L 93.265625 0.625 L 65.015625 1.859375 L 65.265625 -46.109375 L 52.484375 -7.4375 L 41.578125 -7.4375 L 31.796875 -42.015625 L 31.671875 -1.859375 L 3.03125 -0.984375 L 4.28125 -86.640625 L 36.125 -87.875 L 48.765625 -46.859375 L 65.625 -90.359375 Z M 98.96875 -90.359375 "/></g></g><g transform="translate(436.451188, 179.362527)"><g><path d="M 79.765625 -43.75 C 79.765625 -39.988281 79.328125 -36.363281 78.453125 -32.875 C 77.585938 -29.382812 76.335938 -26.109375 74.703125 -23.046875 C 73.078125 -19.992188 71.097656 -17.195312 68.765625 -14.65625 C 66.429688 -12.113281 63.804688 -9.929688 60.890625 -8.109375 C 57.972656 -6.296875 54.800781 -4.882812 51.375 -3.875 C 47.945312 -2.863281 44.3125 -2.359375 40.46875 -2.359375 C 36.75 -2.359375 33.207031 -2.832031 29.84375 -3.78125 C 26.476562 -4.726562 23.328125 -6.054688 20.390625 -7.765625 C 17.453125 -9.484375 14.796875 -11.550781 12.421875 -13.96875 C 10.046875 -16.382812 8.019531 -19.070312 6.34375 -22.03125 C 4.675781 -24.988281 3.375 -28.160156 2.4375 -31.546875 C 1.507812 -34.929688 1.046875 -38.460938 1.046875 -42.140625 C 1.046875 -45.734375 1.476562 -49.253906 2.34375 -52.703125 C 3.21875 -56.160156 4.46875 -59.414062 6.09375 -62.46875 C 7.726562 -65.53125 9.703125 -68.335938 12.015625 -70.890625 C 14.335938 -73.453125 16.929688 -75.660156 19.796875 -77.515625 C 22.671875 -79.378906 25.78125 -80.828125 29.125 -81.859375 C 32.46875 -82.898438 36 -83.421875 39.71875 -83.421875 C 45.71875 -83.421875 51.179688 -82.488281 56.109375 -80.625 C 61.046875 -78.769531 65.257812 -76.113281 68.75 -72.65625 C 72.25 -69.207031 74.957031 -65.035156 76.875 -60.140625 C 78.800781 -55.242188 79.765625 -49.78125 79.765625 -43.75 Z M 52.25 -42.140625 C 52.25 -43.921875 51.988281 -45.644531 51.46875 -47.3125 C 50.945312 -48.988281 50.191406 -50.476562 49.203125 -51.78125 C 48.210938 -53.082031 46.984375 -54.132812 45.515625 -54.9375 C 44.046875 -55.738281 42.363281 -56.140625 40.46875 -56.140625 C 38.53125 -56.140625 36.796875 -55.789062 35.265625 -55.09375 C 33.734375 -54.394531 32.421875 -53.4375 31.328125 -52.21875 C 30.234375 -51 29.394531 -49.570312 28.8125 -47.9375 C 28.238281 -46.300781 27.953125 -44.578125 27.953125 -42.765625 C 27.953125 -41.023438 28.195312 -39.285156 28.6875 -37.546875 C 29.1875 -35.816406 29.929688 -34.25 30.921875 -32.84375 C 31.910156 -31.4375 33.140625 -30.300781 34.609375 -29.4375 C 36.078125 -28.570312 37.78125 -28.140625 39.71875 -28.140625 C 41.664062 -28.140625 43.410156 -28.519531 44.953125 -29.28125 C 46.503906 -30.039062 47.816406 -31.070312 48.890625 -32.375 C 49.972656 -33.675781 50.800781 -35.175781 51.375 -36.875 C 51.957031 -38.570312 52.25 -40.328125 52.25 -42.140625 Z M 52.25 -42.140625 "/></g></g><g transform="translate(517.390656, 179.362527)"><g><path d="M 87.4375 -88.875 L 82.984375 -4.828125 L 50.515625 -1.859375 L 33.15625 -46.859375 L 30.421875 -0.984375 L 2.546875 -0.984375 L 4.765625 -88.875 L 35.765625 -90.359375 L 57.203125 -45.734375 L 58.1875 -87.875 Z M 87.4375 -88.875 "/></g></g><g transform="translate(606.696762, 179.362527)"><g><path d="M 61.84375 -89.359375 C 61.601562 -85.484375 61.378906 -81.644531 61.171875 -77.84375 C 60.960938 -74.039062 60.691406 -70.195312 60.359375 -66.3125 L 34.078125 -64.953125 L 33.46875 -57.140625 L 51.9375 -57.140625 L 50.578125 -37.921875 L 31.984375 -37.3125 L 31.359375 -28.265625 L 57.640625 -28.265625 C 57.390625 -23.710938 57.128906 -19.195312 56.859375 -14.71875 C 56.585938 -10.238281 56.347656 -5.742188 56.140625 -1.234375 L 2.734375 0 L 4.703125 -89.359375 Z M 61.84375 -89.359375 "/></g></g><g transform="translate(667.494327, 179.362527)"><g><path d="M 82.796875 -83.90625 L 48.71875 -36.3125 L 47.09375 2.484375 L 17.71875 2.484375 L 18.46875 -36.0625 L 0.75 -82.046875 L 32.34375 -86.015625 L 37.3125 -59.25 L 53.046875 -86.015625 Z M 82.796875 -83.90625 "/></g></g></g><path stroke-linecap="butt" transform="matrix(0.981499, 0, 0, 0.981499, 256.582111, 158.818041)" fill="none" stroke-linejoin="miter" d="M 62.384579 15.046271 L 58.790745 72.392399 L 40.976791 73.172456 L 41.132006 42.937288 L 33.084683 67.314069 L 26.211426 67.314069 L 20.038628 45.516252 L 19.95903 70.828305 L 1.914243 71.373549 L 2.6943 17.390422 L 22.772807 16.610365 L 30.740532 42.467662 L 41.366819 15.046271 Z M 102.227184 15.671112 C 102.071968 18.11874 101.928693 20.542489 101.797356 22.938378 C 101.66602 25.334267 101.498865 27.754036 101.287932 30.201664 L 84.72764 31.061318 L 84.337612 35.984433 L 95.974788 35.984433 L 95.119113 48.095216 L 83.398359 48.485244 L 83.008331 54.188416 L 99.568622 54.188416 C 99.413407 57.053932 99.250232 59.895568 99.083077 62.721285 C 98.911942 65.547001 98.764686 68.380678 98.63335 71.218334 L 64.959563 71.998391 L 66.209246 15.671112 Z M 149.337054 34.344722 C 149.337054 36.374462 149.161939 38.217147 148.80773 39.872778 C 148.4575 41.52443 147.904296 43.040765 147.148119 44.421784 C 146.391941 45.802804 145.41687 47.076366 144.218925 48.250431 C 143.020981 49.420517 141.576283 50.542844 139.880853 51.609452 L 149.177859 68.173724 L 131.602697 71.608362 L 125.585115 54.968473 L 120.741598 55.123689 L 120.037158 71.373549 L 103.242054 71.373549 C 103.37339 65.435564 103.496766 59.525439 103.612183 53.639192 C 103.731579 47.756926 103.866895 41.84282 104.022111 35.904836 C 104.073849 32.911964 104.129568 29.942971 104.181306 27.001838 C 104.233045 24.056725 104.336522 21.087733 104.491737 18.094861 C 106.314523 17.418281 108.11343 16.857117 109.884478 16.41535 C 111.655526 15.969604 113.430553 15.627334 115.213541 15.380581 C 117.000508 15.129848 118.807375 14.962693 120.646081 14.871156 C 122.480806 14.779619 124.363291 14.73584 126.289554 14.73584 C 129.258546 14.73584 132.128042 15.145768 134.90202 15.965624 C 137.675998 16.785479 140.131586 18.015263 142.264803 19.654975 C 144.402 21.298666 146.113349 23.340346 147.402831 25.787974 C 148.692313 28.235602 149.337054 31.089178 149.337054 34.344722 Z M 131.83751 35.594405 C 131.83751 34.499937 131.686275 33.497007 131.387784 32.585613 C 131.085313 31.67422 130.643546 30.886204 130.058503 30.221563 C 129.47346 29.556923 128.745142 29.039538 127.869567 28.661449 C 126.997973 28.28336 125.975143 28.092326 124.805058 28.092326 C 124.283693 28.092326 123.774268 28.128145 123.280763 28.191823 C 122.787257 28.255501 122.305692 28.354998 121.836065 28.486334 L 121.211224 43.016886 L 122.146496 43.016886 C 123.268823 43.016886 124.40707 42.87361 125.565215 42.587058 C 126.723361 42.300507 127.766091 41.85874 128.689423 41.257778 C 129.616736 40.660795 130.372914 39.888698 130.957956 38.953426 C 131.542999 38.014173 131.83751 36.895826 131.83751 35.594405 Z M 190.743753 17.079991 L 188.554817 33.560685 C 187.79864 33.353731 187.042462 33.210455 186.290264 33.130857 C 185.534087 33.05524 184.777909 33.015441 184.021731 33.015441 C 182.095468 33.015441 180.260742 33.270153 178.517553 33.775598 C 176.770385 34.285023 175.226191 35.0611 173.88497 36.09985 C 172.54375 37.142579 171.477141 38.444001 170.685145 40.008095 C 169.889168 41.572188 169.49118 43.406914 169.49118 45.516252 C 169.49118 46.869412 169.706093 48.043477 170.135921 49.030488 C 170.565748 50.021479 171.17069 50.841335 171.954727 51.494036 C 172.734784 52.142757 173.658117 52.624322 174.724725 52.938733 C 175.795314 53.249164 176.965399 53.404379 178.242942 53.404379 C 179.206073 53.404379 180.209004 53.300902 181.251733 53.093949 C 182.290482 52.886995 183.321272 52.612383 184.336142 52.274093 C 185.351012 51.935803 186.342003 51.545774 187.305134 51.100027 C 188.268266 50.65826 189.1518 50.204554 189.959716 49.734928 L 188.399602 68.094126 C 187.384732 68.615491 186.282304 69.077157 185.096299 69.479125 C 183.914274 69.885073 182.69643 70.235303 181.446747 70.533794 C 180.197064 70.836265 178.943401 71.063118 177.693718 71.218334 C 176.444035 71.373549 175.24609 71.453147 174.099884 71.453147 C 170.792601 71.453147 167.708192 70.840245 164.842677 69.618421 C 161.981141 68.392617 159.493715 66.713107 157.384377 64.57989 C 155.275039 62.442693 153.611448 59.923427 152.401564 57.018113 C 151.19168 54.116778 150.586737 50.984611 150.586737 47.62559 C 150.586737 43.172101 151.223519 38.973325 152.501061 35.029261 C 153.774623 31.081218 155.649148 27.62668 158.124635 24.657687 C 160.600122 21.688695 163.664632 19.344544 167.326124 17.625235 C 170.983636 15.905925 175.194352 15.046271 179.962251 15.046271 C 181.757178 15.046271 183.599864 15.189547 185.486328 15.476098 C 187.376772 15.76265 189.127921 16.295954 190.743753 17.079991 Z M 239.568953 71.998391 L 220.039669 72.937643 L 219.884453 54.888876 L 210.897878 54.888876 L 210.352634 71.998391 L 192.853091 71.998391 L 194.337587 17.079991 L 212.931598 17.935666 L 211.757533 45.985878 L 220.429697 45.985878 L 220.509295 15.826328 L 238.31927 16.295954 Z M 239.568953 71.998391 " stroke="#000000" stroke-width="21" stroke-opacity="1" stroke-miterlimit="4"/><g fill="#00ff7f" fill-opacity="1"><g transform="translate(256.582111, 229.485954)"><g><path d="M 61.21875 -55.890625 L 57.703125 0.390625 L 40.21875 1.15625 L 40.375 -28.515625 L 32.46875 -4.59375 L 25.71875 -4.59375 L 19.671875 -26 L 19.59375 -1.15625 L 1.875 -0.609375 L 2.640625 -53.59375 L 22.34375 -54.359375 L 30.171875 -28.984375 L 40.59375 -55.890625 Z M 61.21875 -55.890625 "/></g></g><g transform="translate(318.654241, 229.485954)"><g><path d="M 38.265625 -55.28125 C 38.109375 -52.875 37.960938 -50.492188 37.828125 -48.140625 C 37.703125 -45.796875 37.539062 -43.421875 37.34375 -41.015625 L 21.078125 -40.171875 L 20.703125 -35.34375 L 32.125 -35.34375 L 31.28125 -23.46875 L 19.78125 -23.078125 L 19.40625 -17.484375 L 35.65625 -17.484375 C 35.5 -14.671875 35.335938 -11.878906 35.171875 -9.109375 C 35.003906 -6.335938 34.859375 -3.554688 34.734375 -0.765625 L 1.6875 0 L 2.90625 -55.28125 Z M 38.265625 -55.28125 "/></g></g><g transform="translate(356.265582, 229.485954)"><g><path d="M 46.890625 -36.953125 C 46.890625 -34.960938 46.71875 -33.15625 46.375 -31.53125 C 46.03125 -29.90625 45.484375 -28.414062 44.734375 -27.0625 C 43.992188 -25.707031 43.035156 -24.453125 41.859375 -23.296875 C 40.679688 -22.148438 39.265625 -21.054688 37.609375 -20.015625 L 46.734375 -3.75 L 29.484375 -0.390625 L 23.578125 -16.71875 L 18.828125 -16.5625 L 18.140625 -0.609375 L 1.65625 -0.609375 C 1.78125 -6.441406 1.898438 -12.242188 2.015625 -18.015625 C 2.128906 -23.796875 2.265625 -29.597656 2.421875 -35.421875 C 2.460938 -38.359375 2.507812 -41.269531 2.5625 -44.15625 C 2.613281 -47.050781 2.71875 -49.96875 2.875 -52.90625 C 4.664062 -53.570312 6.425781 -54.117188 8.15625 -54.546875 C 9.894531 -54.984375 11.640625 -55.320312 13.390625 -55.5625 C 15.148438 -55.8125 16.929688 -55.976562 18.734375 -56.0625 C 20.535156 -56.15625 22.378906 -56.203125 24.265625 -56.203125 C 27.179688 -56.203125 30 -55.796875 32.71875 -54.984375 C 35.4375 -54.179688 37.84375 -52.972656 39.9375 -51.359375 C 42.039062 -49.753906 43.722656 -47.75 44.984375 -45.34375 C 46.253906 -42.945312 46.890625 -40.148438 46.890625 -36.953125 Z M 29.71875 -35.734375 C 29.71875 -36.804688 29.566406 -37.789062 29.265625 -38.6875 C 28.972656 -39.582031 28.539062 -40.351562 27.96875 -41 C 27.394531 -41.65625 26.675781 -42.164062 25.8125 -42.53125 C 24.957031 -42.90625 23.957031 -43.09375 22.8125 -43.09375 C 22.300781 -43.09375 21.800781 -43.0625 21.3125 -43 C 20.832031 -42.9375 20.359375 -42.835938 19.890625 -42.703125 L 19.28125 -28.453125 L 20.203125 -28.453125 C 21.304688 -28.453125 22.425781 -28.59375 23.5625 -28.875 C 24.695312 -29.15625 25.71875 -29.585938 26.625 -30.171875 C 27.53125 -30.753906 28.269531 -31.503906 28.84375 -32.421875 C 29.425781 -33.347656 29.71875 -34.453125 29.71875 -35.734375 Z M 29.71875 -35.734375 "/></g></g><g transform="translate(403.84527, 229.485954)"><g><path d="M 39.953125 -53.90625 L 37.796875 -37.71875 C 37.054688 -37.925781 36.316406 -38.066406 35.578125 -38.140625 C 34.835938 -38.222656 34.097656 -38.265625 33.359375 -38.265625 C 31.460938 -38.265625 29.65625 -38.015625 27.9375 -37.515625 C 26.226562 -37.015625 24.71875 -36.253906 23.40625 -35.234375 C 22.09375 -34.210938 21.046875 -32.929688 20.265625 -31.390625 C 19.484375 -29.859375 19.09375 -28.0625 19.09375 -26 C 19.09375 -24.664062 19.300781 -23.507812 19.71875 -22.53125 C 20.144531 -21.5625 20.738281 -20.757812 21.5 -20.125 C 22.269531 -19.488281 23.175781 -19.015625 24.21875 -18.703125 C 25.269531 -18.398438 26.425781 -18.25 27.6875 -18.25 C 28.625 -18.25 29.601562 -18.347656 30.625 -18.546875 C 31.65625 -18.753906 32.664062 -19.023438 33.65625 -19.359375 C 34.65625 -19.691406 35.628906 -20.070312 36.578125 -20.5 C 37.523438 -20.9375 38.394531 -21.390625 39.1875 -21.859375 L 37.640625 -3.828125 C 36.648438 -3.316406 35.570312 -2.863281 34.40625 -2.46875 C 33.238281 -2.070312 32.039062 -1.726562 30.8125 -1.4375 C 29.59375 -1.144531 28.367188 -0.921875 27.140625 -0.765625 C 25.910156 -0.609375 24.734375 -0.53125 23.609375 -0.53125 C 20.367188 -0.53125 17.34375 -1.128906 14.53125 -2.328125 C 11.71875 -3.535156 9.273438 -5.1875 7.203125 -7.28125 C 5.140625 -9.375 3.507812 -11.847656 2.3125 -14.703125 C 1.125 -17.554688 0.53125 -20.628906 0.53125 -23.921875 C 0.53125 -28.296875 1.15625 -32.414062 2.40625 -36.28125 C 3.664062 -40.15625 5.507812 -43.546875 7.9375 -46.453125 C 10.363281 -49.367188 13.367188 -51.671875 16.953125 -53.359375 C 20.546875 -55.046875 24.679688 -55.890625 29.359375 -55.890625 C 31.128906 -55.890625 32.941406 -55.75 34.796875 -55.46875 C 36.648438 -55.1875 38.367188 -54.664062 39.953125 -53.90625 Z M 39.953125 -53.90625 "/></g></g><g transform="translate(444.255416, 229.485954)"><g><path d="M 47.46875 0 L 28.296875 0.921875 L 28.140625 -16.796875 L 19.328125 -16.796875 L 18.78125 0 L 1.609375 0 L 3.0625 -53.90625 L 21.3125 -53.0625 L 20.171875 -25.53125 L 28.671875 -25.53125 L 28.75 -55.125 L 46.234375 -54.671875 Z M 47.46875 0 "/></g></g></g></svg>