<svg xmlns="http://www.w3.org/2000/svg" xmlns:xlink="http://www.w3.org/1999/xlink" width="1000" zoomAndPan="magnify" viewBox="0 0 750 225" height="300" preserveAspectRatio="xMidYMid meet" version="1.0"><defs><g/></defs><g fill="#000000" fill-opacity="1"><g transform="translate(14.605952, 132.320686)"><g><path d="M 73.5 -58.15625 C 73.5 -54.238281 72.914062 -50.769531 71.75 -47.75 C 70.582031 -44.726562 68.976562 -42.085938 66.9375 -39.828125 C 64.90625 -37.578125 62.519531 -35.664062 59.78125 -34.09375 C 57.039062 -32.519531 54.109375 -31.238281 50.984375 -30.25 C 47.859375 -29.257812 44.625 -28.53125 41.28125 -28.0625 C 37.9375 -27.601562 34.65625 -27.359375 31.4375 -27.328125 L 31.4375 0.84375 L 3.265625 0.84375 C 3.265625 -8.382812 3.285156 -17.570312 3.328125 -26.71875 C 3.367188 -35.863281 3.425781 -45.09375 3.5 -54.40625 C 3.582031 -59.320312 3.601562 -64.238281 3.5625 -69.15625 C 3.519531 -74.070312 3.625 -79.023438 3.875 -84.015625 C 9.03125 -85.546875 14.1875 -86.691406 19.34375 -87.453125 C 24.5 -88.222656 29.816406 -88.609375 35.296875 -88.609375 C 38.398438 -88.609375 41.503906 -88.359375 44.609375 -87.859375 C 47.710938 -87.359375 50.679688 -86.5625 53.515625 -85.46875 C 56.359375 -84.382812 59 -83.023438 61.4375 -81.390625 C 63.882812 -79.753906 65.992188 -77.804688 67.765625 -75.546875 C 69.535156 -73.296875 70.929688 -70.726562 71.953125 -67.84375 C 72.984375 -64.96875 73.5 -61.738281 73.5 -58.15625 Z M 46.671875 -56.09375 C 46.671875 -58.71875 45.875 -60.765625 44.28125 -62.234375 C 42.6875 -63.703125 40.617188 -64.4375 38.078125 -64.4375 C 37.234375 -64.4375 36.359375 -64.363281 35.453125 -64.21875 C 34.546875 -64.082031 33.691406 -63.914062 32.890625 -63.71875 L 32.15625 -46.0625 C 32.71875 -45.976562 33.257812 -45.9375 33.78125 -45.9375 C 34.3125 -45.9375 34.859375 -45.9375 35.421875 -45.9375 C 36.867188 -45.9375 38.269531 -46.175781 39.625 -46.65625 C 40.976562 -47.144531 42.175781 -47.84375 43.21875 -48.75 C 44.269531 -49.65625 45.109375 -50.722656 45.734375 -51.953125 C 46.359375 -53.179688 46.671875 -54.5625 46.671875 -56.09375 Z M 46.671875 -56.09375 "/></g></g><g transform="translate(88.347526, 132.320686)"><g><path d="M 75.375 -67.21875 C 75.375 -64.238281 75.234375 -60.953125 74.953125 -57.359375 C 74.671875 -53.773438 74.207031 -50.066406 73.5625 -46.234375 C 72.914062 -42.410156 72.078125 -38.535156 71.046875 -34.609375 C 70.023438 -30.679688 68.75 -26.898438 67.21875 -23.265625 C 65.6875 -19.640625 63.898438 -16.242188 61.859375 -13.078125 C 59.828125 -9.921875 57.488281 -7.160156 54.84375 -4.796875 C 52.207031 -2.441406 49.257812 -0.59375 46 0.75 C 42.738281 2.101562 39.113281 2.78125 35.125 2.78125 C 30.445312 2.78125 26.382812 2.023438 22.9375 0.515625 C 19.488281 -0.992188 16.535156 -3.03125 14.078125 -5.59375 C 11.617188 -8.15625 9.601562 -11.132812 8.03125 -14.53125 C 6.46875 -17.9375 5.238281 -21.539062 4.34375 -25.34375 C 3.457031 -29.15625 2.84375 -33.046875 2.5 -37.015625 C 2.164062 -40.992188 2 -44.816406 2 -48.484375 C 2 -54.117188 2.28125 -59.75 2.84375 -65.375 C 3.40625 -71 4.210938 -76.609375 5.265625 -82.203125 L 33.546875 -81.125 C 32.460938 -74.789062 31.523438 -68.429688 30.734375 -62.046875 C 29.953125 -55.660156 29.5625 -49.242188 29.5625 -42.796875 C 29.5625 -42.109375 29.585938 -41.085938 29.640625 -39.734375 C 29.703125 -38.390625 29.8125 -36.878906 29.96875 -35.203125 C 30.132812 -33.535156 30.367188 -31.820312 30.671875 -30.0625 C 30.972656 -28.3125 31.382812 -26.710938 31.90625 -25.265625 C 32.4375 -23.816406 33.070312 -22.628906 33.8125 -21.703125 C 34.5625 -20.773438 35.441406 -20.3125 36.453125 -20.3125 C 37.617188 -20.3125 38.664062 -20.863281 39.59375 -21.96875 C 40.519531 -23.082031 41.332031 -24.566406 42.03125 -26.421875 C 42.738281 -28.273438 43.351562 -30.410156 43.875 -32.828125 C 44.40625 -35.242188 44.851562 -37.757812 45.21875 -40.375 C 45.582031 -43 45.875 -45.617188 46.09375 -48.234375 C 46.3125 -50.859375 46.488281 -53.296875 46.625 -55.546875 C 46.769531 -57.804688 46.863281 -59.800781 46.90625 -61.53125 C 46.945312 -63.269531 46.96875 -64.5625 46.96875 -65.40625 C 46.96875 -68.550781 46.914062 -71.679688 46.8125 -74.796875 C 46.71875 -77.921875 46.566406 -81.035156 46.359375 -84.140625 L 74.65625 -84.140625 C 75.132812 -78.578125 75.375 -72.9375 75.375 -67.21875 Z M 75.375 -67.21875 "/></g></g><g transform="translate(165.47396, 132.320686)"><g><path d="M 96.53125 -88.125 L 90.96875 0.609375 L 63.40625 1.8125 L 63.65625 -44.96875 L 51.203125 -7.25 L 40.5625 -7.25 L 31.015625 -40.984375 L 30.890625 -1.8125 L 2.96875 -0.96875 L 4.171875 -84.5 L 35.234375 -85.71875 L 47.578125 -45.703125 L 64.015625 -88.125 Z M 96.53125 -88.125 "/></g></g><g transform="translate(263.332655, 132.320686)"><g><path d="M 73.5 -58.15625 C 73.5 -54.238281 72.914062 -50.769531 71.75 -47.75 C 70.582031 -44.726562 68.976562 -42.085938 66.9375 -39.828125 C 64.90625 -37.578125 62.519531 -35.664062 59.78125 -34.09375 C 57.039062 -32.519531 54.109375 -31.238281 50.984375 -30.25 C 47.859375 -29.257812 44.625 -28.53125 41.28125 -28.0625 C 37.9375 -27.601562 34.65625 -27.359375 31.4375 -27.328125 L 31.4375 0.84375 L 3.265625 0.84375 C 3.265625 -8.382812 3.285156 -17.570312 3.328125 -26.71875 C 3.367188 -35.863281 3.425781 -45.09375 3.5 -54.40625 C 3.582031 -59.320312 3.601562 -64.238281 3.5625 -69.15625 C 3.519531 -74.070312 3.625 -79.023438 3.875 -84.015625 C 9.03125 -85.546875 14.1875 -86.691406 19.34375 -87.453125 C 24.5 -88.222656 29.816406 -88.609375 35.296875 -88.609375 C 38.398438 -88.609375 41.503906 -88.359375 44.609375 -87.859375 C 47.710938 -87.359375 50.679688 -86.5625 53.515625 -85.46875 C 56.359375 -84.382812 59 -83.023438 61.4375 -81.390625 C 63.882812 -79.753906 65.992188 -77.804688 67.765625 -75.546875 C 69.535156 -73.296875 70.929688 -70.726562 71.953125 -67.84375 C 72.984375 -64.96875 73.5 -61.738281 73.5 -58.15625 Z M 46.671875 -56.09375 C 46.671875 -58.71875 45.875 -60.765625 44.28125 -62.234375 C 42.6875 -63.703125 40.617188 -64.4375 38.078125 -64.4375 C 37.234375 -64.4375 36.359375 -64.363281 35.453125 -64.21875 C 34.546875 -64.082031 33.691406 -63.914062 32.890625 -63.71875 L 32.15625 -46.0625 C 32.71875 -45.976562 33.257812 -45.9375 33.78125 -45.9375 C 34.3125 -45.9375 34.859375 -45.9375 35.421875 -45.9375 C 36.867188 -45.9375 38.269531 -46.175781 39.625 -46.65625 C 40.976562 -47.144531 42.175781 -47.84375 43.21875 -48.75 C 44.269531 -49.65625 45.109375 -50.722656 45.734375 -51.953125 C 46.359375 -53.179688 46.671875 -54.5625 46.671875 -56.09375 Z M 46.671875 -56.09375 "/></g></g><g transform="translate(337.07423, 132.320686)"><g><path d="M 96.53125 -88.125 L 90.96875 0.609375 L 63.40625 1.8125 L 63.65625 -44.96875 L 51.203125 -7.25 L 40.5625 -7.25 L 31.015625 -40.984375 L 30.890625 -1.8125 L 2.96875 -0.96875 L 4.171875 -84.5 L 35.234375 -85.71875 L 47.578125 -45.703125 L 64.015625 -88.125 Z M 96.53125 -88.125 "/></g></g><g transform="translate(434.932924, 132.320686)"><g><path d="M 77.796875 -42.671875 C 77.796875 -39.003906 77.367188 -35.46875 76.515625 -32.0625 C 75.671875 -28.65625 74.453125 -25.460938 72.859375 -22.484375 C 71.273438 -19.503906 69.34375 -16.773438 67.0625 -14.296875 C 64.789062 -11.816406 62.234375 -9.691406 59.390625 -7.921875 C 56.546875 -6.148438 53.453125 -4.769531 50.109375 -3.78125 C 46.765625 -2.789062 43.21875 -2.296875 39.46875 -2.296875 C 35.84375 -2.296875 32.382812 -2.757812 29.09375 -3.6875 C 25.8125 -4.613281 22.738281 -5.910156 19.875 -7.578125 C 17.019531 -9.253906 14.429688 -11.269531 12.109375 -13.625 C 9.796875 -15.988281 7.820312 -18.609375 6.1875 -21.484375 C 4.5625 -24.367188 3.296875 -27.460938 2.390625 -30.765625 C 1.484375 -34.066406 1.03125 -37.515625 1.03125 -41.109375 C 1.03125 -44.609375 1.453125 -48.039062 2.296875 -51.40625 C 3.140625 -54.769531 4.359375 -57.941406 5.953125 -60.921875 C 7.546875 -63.910156 9.46875 -66.65625 11.71875 -69.15625 C 13.976562 -71.65625 16.507812 -73.8125 19.3125 -75.625 C 22.113281 -77.4375 25.144531 -78.84375 28.40625 -79.84375 C 31.675781 -80.851562 35.125 -81.359375 38.75 -81.359375 C 44.59375 -81.359375 49.921875 -80.453125 54.734375 -78.640625 C 59.546875 -76.828125 63.65625 -74.238281 67.0625 -70.875 C 70.46875 -67.507812 73.109375 -63.4375 74.984375 -58.65625 C 76.859375 -53.882812 77.796875 -48.554688 77.796875 -42.671875 Z M 50.953125 -41.109375 C 50.953125 -42.835938 50.703125 -44.515625 50.203125 -46.140625 C 49.703125 -47.773438 48.96875 -49.226562 48 -50.5 C 47.03125 -51.769531 45.828125 -52.796875 44.390625 -53.578125 C 42.960938 -54.367188 41.320312 -54.765625 39.46875 -54.765625 C 37.570312 -54.765625 35.878906 -54.421875 34.390625 -53.734375 C 32.898438 -53.046875 31.617188 -52.109375 30.546875 -50.921875 C 29.484375 -49.734375 28.671875 -48.34375 28.109375 -46.75 C 27.546875 -45.164062 27.265625 -43.484375 27.265625 -41.703125 C 27.265625 -40.015625 27.503906 -38.320312 27.984375 -36.625 C 28.472656 -34.9375 29.195312 -33.40625 30.15625 -32.03125 C 31.125 -30.664062 32.320312 -29.554688 33.75 -28.703125 C 35.1875 -27.859375 36.851562 -27.4375 38.75 -27.4375 C 40.644531 -27.4375 42.347656 -27.8125 43.859375 -28.5625 C 45.367188 -29.3125 46.644531 -30.316406 47.6875 -31.578125 C 48.738281 -32.847656 49.546875 -34.304688 50.109375 -35.953125 C 50.671875 -37.609375 50.953125 -39.328125 50.953125 -41.109375 Z M 50.953125 -41.109375 "/></g></g><g transform="translate(513.872675, 132.320686)"><g><path d="M 85.296875 -86.6875 L 80.9375 -4.71875 L 49.265625 -1.8125 L 32.34375 -45.703125 L 29.6875 -0.96875 L 2.484375 -0.96875 L 4.65625 -86.6875 L 34.875 -88.125 L 55.796875 -44.609375 L 56.765625 -85.71875 Z M 85.296875 -86.6875 "/></g></g><g transform="translate(600.972353, 132.320686)"><g><path d="M 60.328125 -87.171875 C 60.085938 -83.378906 59.863281 -79.628906 59.65625 -75.921875 C 59.457031 -72.210938 59.195312 -68.460938 58.875 -64.671875 L 33.25 -63.34375 L 32.640625 -55.734375 L 50.65625 -55.734375 L 49.328125 -37 L 31.1875 -36.390625 L 30.59375 -27.5625 L 56.21875 -27.5625 C 55.976562 -23.132812 55.722656 -18.734375 55.453125 -14.359375 C 55.191406 -9.984375 54.960938 -5.597656 54.765625 -1.203125 L 2.65625 0 L 4.59375 -87.171875 Z M 60.328125 -87.171875 "/></g></g><g transform="translate(660.267833, 132.320686)"><g><path d="M 80.765625 -81.84375 L 47.515625 -35.421875 L 45.9375 2.421875 L 17.28125 2.421875 L 18.015625 -35.1875 L 0.71875 -80.03125 L 31.546875 -83.90625 L 36.390625 -57.78125 L 51.75 -83.90625 Z M 80.765625 -81.84375 "/></g></g></g><path stroke-linecap="butt" transform="matrix(0.95725, 0, 0, 0.95725, 259.507811, 112.28378)" fill="none" stroke-linejoin="miter" d="M 62.381681 15.046983 L 58.790664 72.388996 L 40.978403 73.172491 L 41.13347 42.938576 L 33.086327 67.312604 L 26.210345 67.312604 L 20.040325 45.517579 L 19.962792 70.826088 L 1.913851 71.376982 L 2.697345 17.389306 L 22.774395 16.609892 L 30.744005 42.469295 L 41.36607 15.046983 Z M 102.225647 15.671331 C 102.07058 18.119751 101.927756 20.543688 101.797174 22.939059 C 101.666591 25.334431 101.499282 27.754287 101.287086 30.202707 L 84.7276 31.063735 L 84.335853 35.985061 L 95.978094 35.985061 L 95.117066 48.092501 L 83.397292 48.484249 L 83.009625 54.189069 L 99.569111 54.189069 C 99.414044 57.053721 99.250816 59.89797 99.083507 62.721815 C 98.912118 65.549741 98.761132 68.381748 98.63463 71.217835 L 64.960684 72.00133 L 66.209378 15.671331 Z M 149.337342 34.344619 C 149.337342 36.376808 149.161872 38.217205 148.806851 39.869889 C 148.455911 41.526653 147.905016 43.040593 147.150086 44.41987 C 146.395157 45.803228 145.415788 47.076407 144.220143 48.251649 C 143.020417 49.42281 141.575849 50.540922 139.882358 51.610066 L 149.178195 68.173632 L 131.602615 71.609582 L 125.587661 54.968483 L 120.743869 55.12355 L 120.037908 71.376982 L 103.241742 71.376982 C 103.372324 65.435481 103.494745 59.526626 103.613086 53.642255 C 103.731426 47.753803 103.866089 41.844948 104.025236 35.907528 C 104.074205 32.912293 104.127254 29.941543 104.180303 26.999357 C 104.233352 24.057171 104.33537 21.090502 104.490436 18.095267 C 106.31451 17.417871 108.110018 16.854734 109.881043 16.414018 C 111.652067 15.973302 113.431253 15.626443 115.214519 15.37752 C 116.997785 15.132678 118.809617 14.961289 120.645932 14.871513 C 122.482248 14.781738 124.363451 14.732769 126.289542 14.732769 C 129.256212 14.732769 132.129025 15.14492 134.903902 15.965141 C 137.674698 16.785362 140.13128 18.013653 142.265487 19.658176 C 144.399694 21.298617 146.113588 23.343049 147.40309 25.787389 C 148.692591 28.235809 149.337342 31.08822 149.337342 34.344619 Z M 131.835215 35.593314 C 131.835215 34.499686 131.684229 33.495833 131.386338 32.585837 C 131.088447 31.675841 130.64365 30.888265 130.06011 30.223111 C 129.472489 29.557957 128.742043 29.039708 127.872854 28.660202 C 126.999584 28.280697 125.975328 28.092985 124.804167 28.092985 C 124.281837 28.092985 123.77583 28.125631 123.282065 28.190922 C 122.7883 28.256213 122.302697 28.35415 121.837497 28.484732 L 121.209069 43.016109 L 122.14763 43.016109 C 123.269823 43.016109 124.408339 42.873285 125.567258 42.587636 C 126.726177 42.297906 127.766756 41.85719 128.693075 41.257327 C 129.615313 40.657464 130.370243 39.890292 130.957864 38.951731 C 131.541404 38.01725 131.835215 36.895057 131.835215 35.593314 Z M 190.744217 17.079172 L 188.552881 33.561125 C 187.797951 33.353009 187.043021 33.210184 186.288091 33.132651 C 185.533162 33.055118 184.778232 33.014311 184.023302 33.014311 C 182.097211 33.014311 180.260896 33.271395 178.514356 33.777402 C 176.771896 34.283409 175.229391 35.058742 173.886841 36.103401 C 172.54429 37.14398 171.479227 38.445724 170.68349 40.008632 C 169.887753 41.571541 169.491925 43.407856 169.491925 45.517579 C 169.491925 46.868291 169.708203 48.043533 170.136676 49.031063 C 170.56515 50.022673 171.173174 50.842894 171.952588 51.491726 C 172.736083 52.144638 173.658321 52.62616 174.727465 52.936294 C 175.792528 53.250508 176.96777 53.405574 178.240949 53.405574 C 179.203994 53.405574 180.207847 53.303557 181.248426 53.095441 C 182.293085 52.887325 183.321422 52.613918 184.337516 52.27522 C 185.34953 51.936522 186.341141 51.544775 187.304186 51.099978 C 188.267232 50.659262 189.152744 50.202224 189.960723 49.732943 L 188.397814 68.092018 C 187.381719 68.614348 186.284011 69.075467 185.096527 69.479456 C 183.913123 69.883446 182.697074 70.234386 181.444299 70.536358 C 180.195605 70.834249 178.94691 71.062768 177.694135 71.217835 C 176.44544 71.376982 175.245714 71.454516 174.103118 71.454516 C 170.793669 71.454516 167.708659 70.842411 164.844007 69.6182 C 161.979355 68.39399 159.494208 66.712741 157.384485 64.578534 C 155.274763 62.444328 153.613917 59.922454 152.401949 57.021076 C 151.189981 54.115616 150.586037 50.985719 150.586037 47.623221 C 150.586037 43.171176 151.222626 38.972134 152.499886 35.026096 C 153.777145 31.080058 155.650187 27.623704 158.123092 24.657035 C 160.600078 21.686284 163.664684 19.343962 167.325073 17.625986 C 170.981381 15.908011 175.196746 15.046983 179.958924 15.046983 C 181.758513 15.046983 183.598909 15.189808 185.488274 15.475457 C 187.377639 15.761106 189.12826 16.295678 190.744217 17.079172 Z M 239.569807 72.00133 L 220.039571 72.93581 L 219.884504 54.89095 L 210.8988 54.89095 L 210.351986 72.00133 L 192.849859 72.00133 L 194.335234 17.079172 L 212.93099 17.93612 L 211.759828 45.982779 L 220.431318 45.982779 L 220.508852 15.826397 L 238.321112 16.295678 Z M 239.569807 72.00133 " stroke="#00ff66" stroke-width="21" stroke-opacity="1" stroke-miterlimit="4"/><g fill="#000000" fill-opacity="1"><g transform="translate(259.507811, 181.205758)"><g><path d="M 59.71875 -54.515625 L 56.28125 0.375 L 39.21875 1.125 L 39.375 -27.8125 L 31.671875 -4.484375 L 25.09375 -4.484375 L 19.1875 -25.34375 L 19.109375 -1.125 L 1.828125 -0.59375 L 2.578125 -52.28125 L 21.796875 -53.015625 L 29.421875 -28.265625 L 39.59375 -54.515625 Z M 59.71875 -54.515625 "/></g></g><g transform="translate(320.046376, 181.205758)"><g><path d="M 37.3125 -53.921875 C 37.164062 -51.578125 37.03125 -49.257812 36.90625 -46.96875 C 36.78125 -44.675781 36.617188 -42.359375 36.421875 -40.015625 L 20.5625 -39.1875 L 20.1875 -34.46875 L 31.328125 -34.46875 L 30.515625 -22.890625 L 19.296875 -22.515625 L 18.921875 -17.046875 L 34.78125 -17.046875 C 34.625 -14.304688 34.460938 -11.582031 34.296875 -8.875 C 34.140625 -6.175781 34 -3.46875 33.875 -0.75 L 1.640625 0 L 2.84375 -53.921875 Z M 37.3125 -53.921875 "/></g></g><g transform="translate(356.728484, 181.205758)"><g><path d="M 45.734375 -36.046875 C 45.734375 -34.097656 45.5625 -32.332031 45.21875 -30.75 C 44.882812 -29.164062 44.351562 -27.710938 43.625 -26.390625 C 42.90625 -25.078125 41.972656 -23.859375 40.828125 -22.734375 C 39.679688 -21.609375 38.300781 -20.535156 36.6875 -19.515625 L 45.578125 -3.671875 L 28.75 -0.375 L 23 -16.296875 L 18.359375 -16.15625 L 17.6875 -0.59375 L 1.609375 -0.59375 C 1.734375 -6.28125 1.847656 -11.941406 1.953125 -17.578125 C 2.066406 -23.210938 2.203125 -28.867188 2.359375 -34.546875 C 2.410156 -37.410156 2.457031 -40.25 2.5 -43.0625 C 2.550781 -45.882812 2.648438 -48.726562 2.796875 -51.59375 C 4.546875 -52.25 6.265625 -52.785156 7.953125 -53.203125 C 9.648438 -53.628906 11.351562 -53.957031 13.0625 -54.1875 C 14.769531 -54.425781 16.503906 -54.585938 18.265625 -54.671875 C 20.023438 -54.765625 21.828125 -54.8125 23.671875 -54.8125 C 26.515625 -54.8125 29.257812 -54.414062 31.90625 -53.625 C 34.5625 -52.84375 36.910156 -51.664062 38.953125 -50.09375 C 41.003906 -48.53125 42.644531 -46.578125 43.875 -44.234375 C 45.113281 -41.890625 45.734375 -39.160156 45.734375 -36.046875 Z M 28.984375 -34.84375 C 28.984375 -35.894531 28.835938 -36.851562 28.546875 -37.71875 C 28.265625 -38.59375 27.84375 -39.347656 27.28125 -39.984375 C 26.71875 -40.617188 26.019531 -41.117188 25.1875 -41.484375 C 24.351562 -41.847656 23.375 -42.03125 22.25 -42.03125 C 21.75 -42.03125 21.257812 -42 20.78125 -41.9375 C 20.3125 -41.875 19.851562 -41.78125 19.40625 -41.65625 L 18.8125 -27.75 L 19.703125 -27.75 C 20.773438 -27.75 21.863281 -27.882812 22.96875 -28.15625 C 24.082031 -28.425781 25.082031 -28.847656 25.96875 -29.421875 C 26.851562 -29.992188 27.578125 -30.726562 28.140625 -31.625 C 28.703125 -32.53125 28.984375 -33.601562 28.984375 -34.84375 Z M 28.984375 -34.84375 "/></g></g><g transform="translate(403.132659, 181.205758)"><g><path d="M 38.96875 -52.578125 L 36.875 -36.796875 C 36.144531 -36.992188 35.414062 -37.128906 34.6875 -37.203125 C 33.96875 -37.273438 33.25 -37.3125 32.53125 -37.3125 C 30.6875 -37.3125 28.925781 -37.066406 27.25 -36.578125 C 25.582031 -36.097656 24.109375 -35.359375 22.828125 -34.359375 C 21.546875 -33.367188 20.523438 -32.125 19.765625 -30.625 C 19.003906 -29.125 18.625 -27.363281 18.625 -25.34375 C 18.625 -24.050781 18.828125 -22.929688 19.234375 -21.984375 C 19.648438 -21.035156 20.226562 -20.25 20.96875 -19.625 C 21.71875 -19.007812 22.601562 -18.550781 23.625 -18.25 C 24.65625 -17.945312 25.78125 -17.796875 27 -17.796875 C 27.914062 -17.796875 28.875 -17.894531 29.875 -18.09375 C 30.875 -18.289062 31.859375 -18.550781 32.828125 -18.875 C 33.796875 -19.207031 34.742188 -19.582031 35.671875 -20 C 36.597656 -20.425781 37.445312 -20.863281 38.21875 -21.3125 L 36.71875 -3.734375 C 35.75 -3.234375 34.695312 -2.789062 33.5625 -2.40625 C 32.425781 -2.019531 31.257812 -1.679688 30.0625 -1.390625 C 28.863281 -1.109375 27.664062 -0.894531 26.46875 -0.75 C 25.269531 -0.601562 24.125 -0.53125 23.03125 -0.53125 C 19.863281 -0.53125 16.910156 -1.113281 14.171875 -2.28125 C 11.429688 -3.445312 9.050781 -5.050781 7.03125 -7.09375 C 5.007812 -9.144531 3.421875 -11.5625 2.265625 -14.34375 C 1.109375 -17.125 0.53125 -20.117188 0.53125 -23.328125 C 0.53125 -27.585938 1.140625 -31.609375 2.359375 -35.390625 C 3.578125 -39.171875 5.367188 -42.476562 7.734375 -45.3125 C 10.109375 -48.15625 13.046875 -50.398438 16.546875 -52.046875 C 20.046875 -53.691406 24.078125 -54.515625 28.640625 -54.515625 C 30.359375 -54.515625 32.117188 -54.375 33.921875 -54.09375 C 35.734375 -53.820312 37.414062 -53.316406 38.96875 -52.578125 Z M 38.96875 -52.578125 "/></g></g><g transform="translate(442.544424, 181.205758)"><g><path d="M 46.296875 0 L 27.59375 0.890625 L 27.453125 -16.375 L 18.84375 -16.375 L 18.328125 0 L 1.578125 0 L 2.984375 -52.578125 L 20.796875 -51.75 L 19.671875 -24.90625 L 27.96875 -24.90625 L 28.046875 -53.765625 L 45.09375 -53.328125 Z M 46.296875 0 "/></g></g></g></svg>